<svg width="50" height="46" viewBox="0 0 50 46" fill="none" xmlns="http://www.w3.org/2000/svg">
<path d="M48.0274 21.7603C48.0181 18.9027 47.4307 16.0746 46.2986 13.4374C45.1666 10.8003 43.512 8.40576 41.4294 6.39056C39.3469 4.37536 36.8771 2.77895 34.161 1.69249C31.445 0.606029 28.536 0.0507862 25.6 0.0584657C22.664 0.0661452 19.7586 0.636596 17.0497 1.73725C14.3407 2.8379 11.8813 4.4472 9.81174 6.47326C7.74222 8.49932 6.10315 10.9025 4.98813 13.5455C3.8731 16.1885 3.30396 19.0196 3.31319 21.8773L6.2707 21.8695C6.26269 19.3899 6.75655 16.9333 7.72407 14.6399C8.69159 12.3465 10.1138 10.2613 11.9096 8.50324C13.7053 6.7452 15.8394 5.34879 18.19 4.39374C20.5407 3.43868 23.0617 2.94369 25.6093 2.93703C28.1569 2.93037 30.6811 3.41216 33.0378 4.3549C35.3946 5.29764 37.5377 6.68286 39.3447 8.43148C41.1518 10.1801 42.5875 12.2579 43.5698 14.5462C44.5521 16.8345 45.0619 19.2884 45.0699 21.768L48.0274 21.7603Z" fill="#535353"/>
<path d="M3.19696 23.2651C3.15093 26.1224 3.68356 28.9606 4.76445 31.6177C5.84535 34.2749 7.45332 36.6989 9.49658 38.7514C11.5398 40.8039 13.9784 42.4447 16.6729 43.5801C19.3675 44.7156 22.2653 45.3233 25.2009 45.3688C28.1366 45.4142 31.0525 44.8964 33.7823 43.845C36.5121 42.7936 39.0023 41.2291 41.1106 39.2408C43.219 37.2526 44.9042 34.8795 46.0702 32.2572C47.2361 29.6348 47.8599 26.8145 47.9059 23.9572L44.9488 23.9115C44.9088 26.3907 44.3676 28.838 43.3558 31.1134C42.3441 33.3889 40.8818 35.448 39.0524 37.1733C37.2229 38.8985 35.0622 40.256 32.6935 41.1684C30.3248 42.0807 27.7946 42.53 25.2473 42.4906C22.7 42.4511 20.1855 41.9238 17.8474 40.9386C15.5093 39.9533 13.3934 38.5296 11.6204 36.7486C9.84744 34.9676 8.45217 32.8642 7.51427 30.5586C6.57636 28.2529 6.11418 25.7902 6.15413 23.3109L3.19696 23.2651Z" fill="#535353"/>
<g filter="url(#filter0_i_106_26439)">
<path d="M49.8978 23.8773L37.4269 23.8884L32.0701 23.9267L32.068 6.52914L26.7457 33.6652L24.9498 16.3028L20.5139 38.0118L18.709 9.79683L13.376 23.9099L0.0143969 23.9218" stroke="#3E3385" stroke-width="2"/>
</g>
<defs>
<filter id="filter0_i_106_26439" x="0.0136719" y="6.33679" width="49.885" height="35.8751" filterUnits="userSpaceOnUse" color-interpolation-filters="sRGB">
<feFlood flood-opacity="0" result="BackgroundImageFix"/>
<feBlend mode="normal" in="SourceGraphic" in2="BackgroundImageFix" result="shape"/>
<feColorMatrix in="SourceAlpha" type="matrix" values="0 0 0 0 0 0 0 0 0 0 0 0 0 0 0 0 0 0 127 0" result="hardAlpha"/>
<feOffset dy="4"/>
<feGaussianBlur stdDeviation="2"/>
<feComposite in2="hardAlpha" operator="arithmetic" k2="-1" k3="1"/>
<feColorMatrix type="matrix" values="0 0 0 0 0 0 0 0 0 0 0 0 0 0 0 0 0 0 0.25 0"/>
<feBlend mode="normal" in2="shape" result="effect1_innerShadow_106_26439"/>
</filter>
</defs>
</svg>
